# xmcd
#
# Track frame offsets: 
#        150
#        13391
#        26354
#        37331
#        51269
#        64458
#        78407
#        90946
#        104895
#        120891
#        135039
#        148722
#        159576
#        174733
#        187107
#        199505
#        212834
#        226626
#        241569
#        255641
#        267527
#        280718
#        294291
#        307748
#        320737
#
# Disc length: 4371 seconds
#
# Revision: 6
# Processed by: cddbd v1.4PL0 Copyright (c) Steve Scherf et al.
# Submitted via: ExactAudioCopy v0.95a3
#
DISCID=60111119
DTITLE=Various Artist - Reefer Songs of the 30s and 40s [CD1]
DYEAR=2002
DGENRE=Oldies
TTITLE0=Mezz Mezzrow Orchestra/ Sendin' The Vipers
TTITLE1=Fats Waller - Vipers Drag
TTITLE2=Ella Fitzgerald - When I Get Low I Get High
TTITLE3=Tampa Red and The Chicago Five - I'm Gonna Get High
TTITLE4=Julia Lee and Her Boyfriends - Spinach Song (I Didn't like it Th
TTITLE4=e First Time)
TTITLE5=Sam Price and his Texas Bluesicians - Do You Dig My Jive
TTITLE6=Cootie Williams and his Rug Cutters - Ol' Man River
TTITLE7=Yack Taylor - Knockin Myself Out
TTITLE8=Harlan Lattimore and His Connie's Inn Orchestra - Reefer Man
TTITLE9=Cab Calloway Orchestra - The Man From Harlem
TTITLE10=Stuff Smith and His Onyx Club Boys - Here Comes The Man With Th
TTITLE10=e Jive
TTITLE11=Bob Howard and His Boys - If You're A Viper
TTITLE12=Benny Goodman and His Orchestra - Texas Tea Party
TTITLE13=Buster Balley's Rhythm Busters - Light Up
TTITLE14=Trixie Smith - Jack I'm Mellow
TTITLE15=Barney Bigard Sextet - Sweet Marihuana Brown
TTITLE16=Sidney Bechet and Noble Siisle's Swingers - Viper Mad
TTITLE17=Harlem Hamfats - Weed Smokers Dream
TTITLE18=Cee Pee Johnson and Band - The 'G' Man Got The 'T' Man
TTITLE19=Andy Kirk and His Twelve Clouds Of Joy - All The Jive Is Gone
TTITLE20=Georgia White - Stuff Is Here
TTITLE21=Bea Foote - Weed
TTITLE22=Lil Green - Knockin' Myself Out
TTITLE23=Lorrain Walton - If You're A Viper
TTITLE24=Buck Washington - Save The Roach For Me
EXTD=YEAR: 2002
EXTT0=
EXTT1=
EXTT2=
EXTT3=
EXTT4=
EXTT5=
EXTT6=
EXTT7=
EXTT8=
EXTT9=
EXTT10=
EXTT11=
EXTT12=
EXTT13=
EXTT14=
EXTT15=
EXTT16=
EXTT17=
EXTT18=
EXTT19=
EXTT20=
EXTT21=
EXTT22=
EXTT23=
EXTT24=
PLAYORDER=
